<svg width="119" height="50" viewBox="0 0 119 50" fill="none" xmlns="http://www.w3.org/2000/svg">
<rect width="50" height="50" rx="25" fill="#81CC29"/>
<circle cx="30" cy="25" r="20" fill="#5AB436"/>
<path d="M44.8926 27.5642C44.8926 28.6456 44.541 29.5769 43.8377 30.358C43.1344 31.139 42.2208 31.6215 41.0969 31.8052V33.6607C41.0969 33.7597 41.0651 33.841 41.0014 33.9046C40.9378 33.9682 40.8565 34 40.7576 34H39.3262C39.2343 34 39.1548 33.9664 39.0877 33.8993C39.0205 33.8321 38.9869 33.7526 38.9869 33.6607V31.8052C38.5204 31.7416 38.0698 31.6321 37.6351 31.4766C37.2004 31.3211 36.8417 31.1638 36.5589 31.0047C36.2762 30.8457 36.0147 30.6761 35.7743 30.4958C35.534 30.3156 35.3697 30.183 35.2813 30.0982C35.1929 30.0134 35.1311 29.9498 35.0958 29.9074C34.9756 29.7589 34.9685 29.614 35.0746 29.4727L36.1666 28.0413C36.2161 27.9706 36.2974 27.9282 36.4105 27.9141C36.5165 27.8999 36.6013 27.9317 36.665 28.0095L36.6862 28.0307C37.4849 28.7305 38.3437 29.1722 39.2626 29.356C39.5241 29.4126 39.7857 29.4408 40.0472 29.4408C40.6198 29.4408 41.1234 29.2889 41.5581 28.9849C41.9928 28.681 42.2102 28.2498 42.2102 27.6914C42.2102 27.4935 42.1571 27.3062 42.0511 27.1295C41.9451 26.9528 41.8267 26.8043 41.6959 26.6842C41.5652 26.564 41.3584 26.4315 41.0757 26.2866C40.7929 26.1416 40.5597 26.0286 40.3759 25.9473C40.1921 25.866 39.9094 25.7511 39.5277 25.6027C39.252 25.4896 39.0347 25.4012 38.8756 25.3376C38.7166 25.274 38.4992 25.1803 38.2235 25.0566C37.9479 24.9329 37.727 24.8234 37.5609 24.728C37.3948 24.6325 37.1951 24.5071 36.9618 24.3516C36.7286 24.1961 36.5395 24.0459 36.3946 23.9009C36.2497 23.756 36.0959 23.5829 35.9334 23.3814C35.7708 23.18 35.6453 22.975 35.557 22.7665C35.4686 22.5579 35.3944 22.3229 35.3343 22.0614C35.2742 21.7999 35.2442 21.5242 35.2442 21.2344C35.2442 20.2589 35.5905 19.4036 36.2833 18.6685C36.976 17.9334 37.8772 17.4598 38.9869 17.2478V15.3393C38.9869 15.2474 39.0205 15.1679 39.0877 15.1007C39.1548 15.0336 39.2343 15 39.3262 15H40.7576C40.8565 15 40.9378 15.0318 41.0014 15.0954C41.0651 15.159 41.0969 15.2403 41.0969 15.3393V17.2054C41.4998 17.2478 41.8903 17.3291 42.2685 17.4492C42.6466 17.5694 42.9541 17.6878 43.1909 17.8044C43.4277 17.921 43.6521 18.0536 43.8642 18.202C44.0762 18.3504 44.2141 18.4529 44.2777 18.5095C44.3413 18.566 44.3943 18.6155 44.4367 18.6579C44.5569 18.7852 44.5745 18.9195 44.4897 19.0608L43.6309 20.6088C43.5744 20.7148 43.4931 20.7714 43.387 20.7785C43.2881 20.7997 43.1927 20.7749 43.1008 20.7042C43.0796 20.683 43.0283 20.6406 42.947 20.577C42.8658 20.5134 42.7279 20.4197 42.5335 20.296C42.3392 20.1723 42.1324 20.0592 41.9133 19.9568C41.6942 19.8543 41.4309 19.7624 41.1234 19.6811C40.8159 19.5998 40.5137 19.5592 40.2168 19.5592C39.5453 19.5592 38.9975 19.7111 38.5734 20.0151C38.1493 20.319 37.9373 20.7113 37.9373 21.192C37.9373 21.3757 37.9673 21.5454 38.0274 21.7009C38.0875 21.8564 38.1917 22.0031 38.3402 22.1409C38.4886 22.2787 38.6282 22.3954 38.759 22.4908C38.8897 22.5862 39.0877 22.6958 39.3527 22.8195C39.6178 22.9432 39.8316 23.0386 39.9942 23.1057C40.1568 23.1729 40.4042 23.2701 40.7364 23.3973C41.111 23.5387 41.3973 23.65 41.5952 23.7313C41.7931 23.8126 42.0617 23.9363 42.401 24.1024C42.7403 24.2685 43.0071 24.4187 43.2015 24.553C43.3959 24.6873 43.615 24.864 43.8589 25.0831C44.1027 25.3023 44.29 25.5267 44.4208 25.7564C44.5516 25.9861 44.6629 26.2565 44.7548 26.5675C44.8467 26.8785 44.8926 27.2108 44.8926 27.5642Z" fill="white"/>
<path d="M32.6199 27.8382C32.6199 29.5458 32.0647 31.0162 30.9542 32.2494C29.8437 33.4827 28.4012 34.2444 26.6266 34.5346V37.4643C26.6266 37.6205 26.5764 37.7489 26.476 37.8493C26.3755 37.9498 26.2472 38 26.0909 38H23.8309C23.6858 38 23.5602 37.947 23.4542 37.841C23.3482 37.7349 23.2952 37.6094 23.2952 37.4643V34.5346C22.5586 34.4342 21.8471 34.2612 21.1607 34.0156C20.4743 33.7701 19.9079 33.5218 19.4615 33.2706C19.015 33.0195 18.6021 32.7517 18.2226 32.4671C17.8432 32.1825 17.5837 31.9732 17.4442 31.8393C17.3047 31.7054 17.207 31.6049 17.1512 31.5379C16.9615 31.3036 16.9503 31.0748 17.1177 30.8516L18.842 28.5915C18.9202 28.4799 19.0485 28.4129 19.2271 28.3906C19.3945 28.3683 19.5284 28.4185 19.6289 28.5413L19.6624 28.5748C20.9235 29.6797 22.2795 30.3772 23.7304 30.6674C24.1434 30.7567 24.5563 30.8013 24.9693 30.8013C25.8733 30.8013 26.6685 30.5614 27.3549 30.0815C28.0413 29.6016 28.3845 28.9208 28.3845 28.0391C28.3845 27.7266 28.3007 27.4308 28.1333 27.1518C27.9659 26.8728 27.779 26.6384 27.5725 26.4487C27.366 26.2589 27.0396 26.0497 26.5932 25.8209C26.1467 25.5921 25.7784 25.4135 25.4882 25.2852C25.1981 25.1568 24.7516 24.9754 24.149 24.7411C23.7137 24.5625 23.3705 24.423 23.1194 24.3225C22.8683 24.2221 22.5251 24.0742 22.0898 23.8789C21.6545 23.6836 21.3058 23.5106 21.0435 23.3599C20.7812 23.2093 20.4659 23.0112 20.0976 22.7656C19.7293 22.5201 19.4308 22.2829 19.202 22.0541C18.9732 21.8253 18.7304 21.5519 18.4737 21.2338C18.217 20.9157 18.0189 20.5921 17.8794 20.2628C17.7399 19.9336 17.6227 19.5625 17.5279 19.1496C17.433 18.7366 17.3856 18.3013 17.3856 17.8438C17.3856 16.3036 17.9324 14.9531 19.0262 13.7924C20.1199 12.6317 21.5429 11.8839 23.2952 11.5491V8.53571C23.2952 8.39063 23.3482 8.26507 23.4542 8.15904C23.5602 8.05301 23.6858 8 23.8309 8H26.0909C26.2472 8 26.3755 8.05022 26.476 8.15067C26.5764 8.25112 26.6266 8.37946 26.6266 8.53571V11.4821C27.2628 11.5491 27.8794 11.6775 28.4765 11.8672C29.0736 12.0569 29.5591 12.2439 29.933 12.428C30.3069 12.6122 30.6612 12.8214 30.9961 13.0558C31.3309 13.2902 31.5485 13.452 31.649 13.5413C31.7494 13.6306 31.8331 13.7087 31.9001 13.7757C32.0898 13.9766 32.1177 14.1886 31.9838 14.4118L30.6278 16.856C30.5385 17.0234 30.4101 17.1127 30.2427 17.1239C30.0865 17.1574 29.9358 17.1183 29.7907 17.0067C29.7572 16.9732 29.6763 16.9063 29.548 16.8058C29.4196 16.7054 29.202 16.5575 28.8951 16.3622C28.5881 16.1669 28.2617 15.9883 27.9157 15.8265C27.5697 15.6646 27.154 15.5195 26.6685 15.3912C26.183 15.2628 25.7059 15.1987 25.2371 15.1987C24.1769 15.1987 23.3119 15.4386 22.6423 15.9185C21.9726 16.3984 21.6378 17.0179 21.6378 17.7768C21.6378 18.067 21.6852 18.3348 21.7801 18.5804C21.875 18.8259 22.0396 19.0575 22.274 19.2751C22.5083 19.4927 22.7288 19.6769 22.9352 19.8276C23.1417 19.9782 23.4542 20.1512 23.8727 20.3465C24.2913 20.5419 24.6289 20.6925 24.8856 20.7985C25.1423 20.9046 25.5329 21.058 26.0574 21.2589C26.649 21.4821 27.101 21.6579 27.4135 21.7863C27.726 21.9146 28.1501 22.1099 28.6858 22.3722C29.2215 22.6345 29.6428 22.8717 29.9497 23.0837C30.2567 23.2958 30.6026 23.5748 30.9877 23.9208C31.3727 24.2667 31.6685 24.6211 31.875 24.9838C32.0814 25.3465 32.2572 25.7734 32.4023 26.2645C32.5474 26.7556 32.6199 27.2801 32.6199 27.8382Z" fill="white"/>
<path d="M54.908 15.86H61.892V17.12H56.492V21.692H61.514V22.952H56.492V27.74H62.252V29H54.908V15.86ZM72.9723 15.86H74.5563V29H72.8283L66.5643 18.524V29H64.9803V15.86H66.7083L72.9723 26.354V15.86ZM78.3748 15.86H79.9588V29H78.3748V15.86ZM92.5013 27.254C92.1293 27.902 91.5953 28.4 90.8993 28.748C90.2033 29.084 89.3453 29.252 88.3253 29.252C87.3173 29.252 86.4653 29.084 85.7693 28.748C85.0853 28.412 84.5573 27.92 84.1853 27.272C83.8253 26.612 83.5673 25.898 83.4113 25.13C83.2673 24.362 83.1953 23.522 83.1953 22.61C83.1953 21.686 83.2373 20.906 83.3213 20.27C83.4053 19.622 83.5613 18.998 83.7893 18.398C84.0293 17.798 84.3353 17.3 84.7073 16.904C85.5353 16.04 86.7473 15.608 88.3433 15.608C90.3593 15.608 91.7453 16.28 92.5013 17.624C92.8733 18.272 93.1313 18.98 93.2753 19.748C93.4313 20.516 93.5093 21.416 93.5093 22.448C93.5093 23.468 93.4313 24.362 93.2753 25.13C93.1313 25.898 92.8733 26.606 92.5013 27.254ZM88.4513 27.956C89.0753 27.956 89.6273 27.818 90.1073 27.542C90.5993 27.254 90.9713 26.852 91.2233 26.336C91.4753 25.808 91.6553 25.232 91.7633 24.608C91.8713 23.972 91.9253 23.246 91.9253 22.43C91.9253 21.614 91.8713 20.894 91.7633 20.27C91.6553 19.634 91.4753 19.052 91.2233 18.524C90.6953 17.444 89.7353 16.904 88.3433 16.904C87.2273 16.904 86.3873 17.258 85.8233 17.966C85.1273 18.842 84.7793 20.33 84.7793 22.43C84.7793 24.53 85.1273 26.018 85.8233 26.894C86.3873 27.602 87.2633 27.956 88.4513 27.956ZM96.7439 15.86H100.722C101.502 15.86 102.168 15.974 102.72 16.202C103.284 16.43 103.704 16.742 103.98 17.138C104.496 17.882 104.754 18.746 104.754 19.73C104.754 21.614 103.998 22.814 102.486 23.33C102.81 23.57 103.098 23.966 103.35 24.518L105.294 29H103.602L101.784 24.734C101.592 24.302 101.352 24.008 101.064 23.852C100.776 23.696 100.374 23.606 99.8579 23.582H98.3279V29H96.7439V15.86ZM98.3279 22.322H100.65C101.526 22.322 102.162 22.076 102.558 21.584C102.966 21.08 103.17 20.462 103.17 19.73C103.17 18.986 102.966 18.368 102.558 17.876C102.162 17.372 101.526 17.12 100.65 17.12H98.3279V22.322Z" fill="black"/>
<path d="M53.688 39.584C53.688 38.688 53.8693 37.904 54.232 37.232C54.5947 36.5493 55.0907 36.0213 55.72 35.648C56.36 35.2747 57.0693 35.088 57.848 35.088C58.616 35.088 59.2827 35.2533 59.848 35.584C60.4133 35.9147 60.8347 36.3307 61.112 36.832V35.232H62.584V44H61.112V42.368C60.824 42.88 60.392 43.3067 59.816 43.648C59.2507 43.9787 58.5893 44.144 57.832 44.144C57.0533 44.144 56.3493 43.952 55.72 43.568C55.0907 43.184 54.5947 42.6453 54.232 41.952C53.8693 41.2587 53.688 40.4693 53.688 39.584ZM61.112 39.6C61.112 38.9387 60.9787 38.3627 60.712 37.872C60.4453 37.3813 60.0827 37.008 59.624 36.752C59.176 36.4853 58.68 36.352 58.136 36.352C57.592 36.352 57.096 36.48 56.648 36.736C56.2 36.992 55.8427 37.3653 55.576 37.856C55.3093 38.3467 55.176 38.9227 55.176 39.584C55.176 40.256 55.3093 40.8427 55.576 41.344C55.8427 41.8347 56.2 42.2133 56.648 42.48C57.096 42.736 57.592 42.864 58.136 42.864C58.68 42.864 59.176 42.736 59.624 42.48C60.0827 42.2133 60.4453 41.8347 60.712 41.344C60.9787 40.8427 61.112 40.2613 61.112 39.6ZM68.3085 42.656L71.0285 35.232H72.5805L69.1405 44H67.4445L64.0045 35.232H65.5725L68.3085 42.656ZM74.7653 33.808C74.4879 33.808 74.2533 33.712 74.0613 33.52C73.8693 33.328 73.7733 33.0933 73.7733 32.816C73.7733 32.5387 73.8693 32.304 74.0613 32.112C74.2533 31.92 74.4879 31.824 74.7653 31.824C75.0319 31.824 75.2559 31.92 75.4373 32.112C75.6293 32.304 75.7253 32.5387 75.7253 32.816C75.7253 33.0933 75.6293 33.328 75.4373 33.52C75.2559 33.712 75.0319 33.808 74.7653 33.808ZM75.4693 35.232V44H74.0133V35.232H75.4693ZM82.2228 35.072C83.2894 35.072 84.1534 35.3973 84.8148 36.048C85.4761 36.688 85.8068 37.616 85.8068 38.832V44H84.3668V39.04C84.3668 38.1653 84.1481 37.4987 83.7108 37.04C83.2734 36.5707 82.6761 36.336 81.9188 36.336C81.1508 36.336 80.5374 36.576 80.0788 37.056C79.6308 37.536 79.4068 38.2347 79.4068 39.152V44H77.9508V35.232H79.4068V36.48C79.6948 36.032 80.0841 35.6853 80.5748 35.44C81.0761 35.1947 81.6254 35.072 82.2228 35.072ZM91.8011 35.088C92.5585 35.088 93.2198 35.2533 93.7851 35.584C94.3611 35.9147 94.7878 36.3307 95.0651 36.832V35.232H96.5371V44.192C96.5371 44.992 96.3665 45.7013 96.0251 46.32C95.6838 46.9493 95.1931 47.44 94.5531 47.792C93.9238 48.144 93.1878 48.32 92.3451 48.32C91.1931 48.32 90.2331 48.048 89.4651 47.504C88.6971 46.96 88.2438 46.2187 88.1051 45.28H89.5451C89.7051 45.8133 90.0358 46.24 90.5371 46.56C91.0385 46.8907 91.6411 47.056 92.3451 47.056C93.1451 47.056 93.7958 46.8053 94.2971 46.304C94.8091 45.8027 95.0651 45.0987 95.0651 44.192V42.352C94.7771 42.864 94.3505 43.2907 93.7851 43.632C93.2198 43.9733 92.5585 44.144 91.8011 44.144C91.0225 44.144 90.3131 43.952 89.6731 43.568C89.0438 43.184 88.5478 42.6453 88.1851 41.952C87.8225 41.2587 87.6411 40.4693 87.6411 39.584C87.6411 38.688 87.8225 37.904 88.1851 37.232C88.5478 36.5493 89.0438 36.0213 89.6731 35.648C90.3131 35.2747 91.0225 35.088 91.8011 35.088ZM95.0651 39.6C95.0651 38.9387 94.9318 38.3627 94.6651 37.872C94.3985 37.3813 94.0358 37.008 93.5771 36.752C93.1291 36.4853 92.6331 36.352 92.0891 36.352C91.5451 36.352 91.0491 36.48 90.6011 36.736C90.1531 36.992 89.7958 37.3653 89.5291 37.856C89.2625 38.3467 89.1291 38.9227 89.1291 39.584C89.1291 40.256 89.2625 40.8427 89.5291 41.344C89.7958 41.8347 90.1531 42.2133 90.6011 42.48C91.0491 42.736 91.5451 42.864 92.0891 42.864C92.6331 42.864 93.1291 42.736 93.5771 42.48C94.0358 42.2133 94.3985 41.8347 94.6651 41.344C94.9318 40.8427 95.0651 40.2613 95.0651 39.6ZM102.102 44.144C101.43 44.144 100.827 44.032 100.294 43.808C99.7603 43.5733 99.339 43.2533 99.0296 42.848C98.7203 42.432 98.5496 41.9573 98.5176 41.424H100.022C100.064 41.8613 100.267 42.2187 100.63 42.496C101.003 42.7733 101.488 42.912 102.086 42.912C102.64 42.912 103.078 42.7893 103.398 42.544C103.718 42.2987 103.878 41.9893 103.878 41.616C103.878 41.232 103.707 40.9493 103.366 40.768C103.024 40.576 102.496 40.3893 101.782 40.208C101.131 40.0373 100.598 39.8667 100.182 39.696C99.7763 39.5147 99.4243 39.2533 99.1256 38.912C98.8376 38.56 98.6936 38.1013 98.6936 37.536C98.6936 37.088 98.827 36.6773 99.0936 36.304C99.3603 35.9307 99.739 35.6373 100.23 35.424C100.72 35.2 101.28 35.088 101.91 35.088C102.88 35.088 103.664 35.3333 104.262 35.824C104.859 36.3147 105.179 36.9867 105.222 37.84H103.766C103.734 37.3813 103.547 37.0133 103.206 36.736C102.875 36.4587 102.427 36.32 101.862 36.32C101.339 36.32 100.923 36.432 100.614 36.656C100.304 36.88 100.15 37.1733 100.15 37.536C100.15 37.824 100.24 38.064 100.422 38.256C100.614 38.4373 100.848 38.5867 101.126 38.704C101.414 38.8107 101.808 38.9333 102.31 39.072C102.939 39.2427 103.451 39.4133 103.846 39.584C104.24 39.744 104.576 39.9893 104.854 40.32C105.142 40.6507 105.291 41.0827 105.302 41.616C105.302 42.096 105.168 42.528 104.902 42.912C104.635 43.296 104.256 43.6 103.766 43.824C103.286 44.0373 102.731 44.144 102.102 44.144Z" fill="black"/>
</svg>
