<svg width="353" height="118" viewBox="0 0 353 118" fill="none" xmlns="http://www.w3.org/2000/svg">
<rect width="118" height="118" rx="59" fill="#5AB436"/>
<rect x="33" y="16.5" width="85" height="85" rx="42.5" fill="#81CC29"/>
<path d="M101.744 64.3058C101.744 66.3549 101.078 68.1194 99.745 69.5993C98.4125 71.0792 96.6814 71.9933 94.552 72.3415V75.8571C94.552 76.0446 94.4917 76.1987 94.3712 76.3192C94.2506 76.4397 94.0966 76.5 93.9091 76.5H91.1971C91.0229 76.5 90.8723 76.4364 90.745 76.3092C90.6178 76.1819 90.5542 76.0313 90.5542 75.8571V72.3415C89.6703 72.221 88.8165 72.0134 87.9928 71.7188C87.1692 71.4241 86.4895 71.1261 85.9538 70.8248C85.418 70.5234 84.9225 70.202 84.4671 69.8605C84.0118 69.519 83.7004 69.2679 83.533 69.1071C83.3656 68.9464 83.2484 68.8259 83.1814 68.7455C82.9538 68.4643 82.9404 68.1897 83.1413 67.9219L85.2104 65.2098C85.3042 65.0759 85.4582 64.9955 85.6725 64.9688C85.8734 64.942 86.0341 65.0022 86.1546 65.1496L86.1948 65.1897C87.7082 66.5156 89.3354 67.3527 91.0765 67.7009C91.5721 67.808 92.0676 67.8616 92.5631 67.8616C93.6479 67.8616 94.6022 67.5737 95.4259 66.9978C96.2495 66.4219 96.6613 65.6049 96.6613 64.5469C96.6613 64.1719 96.5609 63.817 96.36 63.4821C96.1591 63.1473 95.9348 62.8661 95.687 62.6384C95.4392 62.4107 95.0475 62.1596 94.5118 61.885C93.9761 61.6105 93.5341 61.3962 93.1859 61.2422C92.8377 61.0882 92.302 60.8705 91.5788 60.5893C91.0564 60.375 90.6446 60.2076 90.3433 60.0871C90.0419 59.9665 89.6301 59.7891 89.1078 59.5547C88.5854 59.3203 88.1669 59.1127 87.8522 58.9319C87.5375 58.7511 87.1591 58.5134 86.7171 58.2188C86.2752 57.9241 85.9169 57.6395 85.6424 57.365C85.3678 57.0904 85.0765 56.7623 84.7685 56.3806C84.4604 55.9989 84.2227 55.6105 84.0553 55.2154C83.8879 54.8203 83.7473 54.375 83.6334 53.8795C83.5196 53.3839 83.4627 52.8616 83.4627 52.3125C83.4627 50.4643 84.1189 48.8438 85.4314 47.4509C86.7439 46.058 88.4515 45.1607 90.5542 44.7589V41.1429C90.5542 40.9688 90.6178 40.8181 90.745 40.6908C90.8723 40.5636 91.0229 40.5 91.1971 40.5H93.9091C94.0966 40.5 94.2506 40.5603 94.3712 40.6808C94.4917 40.8013 94.552 40.9554 94.552 41.1429V44.6786C95.3154 44.7589 96.0553 44.9129 96.7718 45.1406C97.4884 45.3683 98.0709 45.5926 98.5196 45.8136C98.9683 46.0346 99.3935 46.2857 99.7953 46.567C100.197 46.8482 100.458 47.0424 100.579 47.1496C100.699 47.2567 100.8 47.3504 100.88 47.4308C101.108 47.6719 101.141 47.9263 100.981 48.1942L99.3533 51.1272C99.2462 51.3281 99.0921 51.4353 98.8913 51.4487C98.7038 51.4888 98.5229 51.442 98.3488 51.308C98.3087 51.2679 98.2116 51.1875 98.0575 51.067C97.9035 50.9464 97.6424 50.769 97.2741 50.5346C96.9058 50.3002 96.514 50.0859 96.0988 49.8917C95.6837 49.6975 95.1848 49.5234 94.6022 49.3694C94.0196 49.2154 93.4471 49.1384 92.8846 49.1384C91.6122 49.1384 90.5743 49.4263 89.7707 50.0022C88.9671 50.5781 88.5654 51.3214 88.5654 52.2321C88.5654 52.5804 88.6223 52.9018 88.7361 53.1964C88.85 53.4911 89.0475 53.769 89.3288 54.0301C89.61 54.2913 89.8745 54.5123 90.1223 54.6931C90.37 54.8739 90.745 55.0815 91.2473 55.3158C91.7495 55.5502 92.1546 55.731 92.4627 55.8583C92.7707 55.9855 93.2395 56.1696 93.8689 56.4107C94.5788 56.6786 95.1212 56.8895 95.4962 57.0435C95.8712 57.1975 96.3801 57.4319 97.0229 57.7467C97.6658 58.0614 98.1714 58.346 98.5397 58.6004C98.908 58.8549 99.3232 59.1897 99.7852 59.6049C100.247 60.0201 100.602 60.4453 100.85 60.8806C101.098 61.3158 101.309 61.8281 101.483 62.4174C101.657 63.0067 101.744 63.6362 101.744 64.3058Z" fill="white"/>
<path d="M79.0746 66.8862C79.0746 69.846 78.1121 72.3947 76.1873 74.5324C74.2624 76.67 71.7621 77.9903 68.6862 78.4933V83.5714C68.6862 83.8423 68.5991 84.0647 68.425 84.2388C68.2509 84.4129 68.0284 84.5 67.7576 84.5H63.8402C63.5887 84.5 63.3711 84.4081 63.1873 84.2243C63.0035 84.0406 62.9116 83.8229 62.9116 83.5714V78.4933C61.6348 78.3192 60.4016 78.0193 59.2118 77.5938C58.0221 77.1682 57.0403 76.7377 56.2665 76.3025C55.4927 75.8672 54.7769 75.4029 54.1192 74.9096C53.4615 74.4163 53.0117 74.0536 52.7699 73.8214C52.5281 73.5893 52.3588 73.4152 52.2621 73.2991C51.9332 72.8929 51.9139 72.4963 52.204 72.1094L55.1929 68.192C55.3283 67.9985 55.5508 67.8824 55.8603 67.8438C56.1505 67.8051 56.3826 67.8921 56.5567 68.1049L56.6147 68.1629C58.8008 70.0781 61.1512 71.2872 63.6661 71.7902C64.3819 71.9449 65.0976 72.0223 65.8134 72.0223C67.3804 72.0223 68.7587 71.6064 69.9484 70.7746C71.1382 69.9427 71.733 68.7627 71.733 67.2344C71.733 66.6927 71.588 66.1801 71.2978 65.6964C71.0076 65.2128 70.6836 64.8065 70.3257 64.4777C69.9678 64.1488 69.4019 63.7861 68.6281 63.3895C67.8543 62.9929 67.2159 62.6834 66.713 62.4609C66.21 62.2385 65.4362 61.9241 64.3915 61.5179C63.6371 61.2083 63.0422 60.9665 62.6069 60.7924C62.1717 60.6183 61.5768 60.362 60.8223 60.0234C60.0679 59.6849 59.4633 59.385 59.0087 59.1239C58.5541 58.8627 58.0076 58.5193 57.3692 58.0938C56.7308 57.6682 56.2133 57.2571 55.8168 56.8605C55.4202 56.4639 54.9994 55.99 54.5545 55.4386C54.1095 54.8873 53.7662 54.3263 53.5243 53.7556C53.2825 53.1849 53.0794 52.5417 52.915 51.8259C52.7505 51.1101 52.6683 50.3557 52.6683 49.5625C52.6683 46.8929 53.6162 44.5521 55.5121 42.5402C57.4079 40.5283 59.8744 39.2321 62.9116 38.6518V33.4286C62.9116 33.1771 63.0035 32.9594 63.1873 32.7757C63.3711 32.5919 63.5887 32.5 63.8402 32.5H67.7576C68.0284 32.5 68.2509 32.5871 68.425 32.7612C68.5991 32.9353 68.6862 33.1577 68.6862 33.4286V38.5357C69.7889 38.6518 70.8577 38.8743 71.8926 39.2031C72.9276 39.532 73.7691 39.856 74.4172 40.1752C75.0653 40.4944 75.6795 40.8571 76.2598 41.2634C76.8402 41.6696 77.2174 41.9501 77.3915 42.1049C77.5656 42.2597 77.7107 42.3951 77.8268 42.5112C78.1557 42.8594 78.204 43.2269 77.9719 43.6138L75.6214 47.8504C75.4667 48.1406 75.2442 48.2954 74.954 48.3147C74.6832 48.3728 74.422 48.3051 74.1705 48.1116C74.1125 48.0536 73.9723 47.9375 73.7498 47.7634C73.5273 47.5893 73.1501 47.333 72.6181 46.9944C72.0861 46.6559 71.5202 46.3464 70.9205 46.0658C70.3208 45.7853 69.6002 45.5339 68.7587 45.3114C67.9172 45.0889 67.0902 44.9777 66.2777 44.9777C64.4399 44.9777 62.9406 45.3936 61.7799 46.2254C60.6192 47.0573 60.0389 48.131 60.0389 49.4464C60.0389 49.9494 60.1211 50.4137 60.2855 50.8393C60.4499 51.2649 60.7353 51.6663 61.1415 52.0435C61.5478 52.4208 61.9298 52.74 62.2877 53.0011C62.6456 53.2623 63.1873 53.5621 63.9127 53.9007C64.6382 54.2392 65.2234 54.5004 65.6683 54.6842C66.1133 54.8679 66.7903 55.1339 67.6996 55.4821C68.7249 55.869 69.5083 56.1737 70.05 56.3962C70.5917 56.6187 71.3268 56.9572 72.2554 57.4118C73.1839 57.8664 73.9142 58.2775 74.4462 58.6451C74.9782 59.0127 75.5779 59.4963 76.2453 60.096C76.9127 60.6957 77.4254 61.3099 77.7833 61.9386C78.1412 62.5673 78.4458 63.3073 78.6973 64.1585C78.9488 65.0097 79.0746 65.9189 79.0746 66.8862Z" fill="white"/>
<path d="M135.056 35.672H148.016V38.732H135.056V35.672ZM135.38 46.868H150.068V50H131.78V24.8H149.564V27.932H135.38V46.868ZM155.897 50V24.8H158.849L175.517 45.5H173.969V24.8H177.569V50H174.617L157.949 29.3H159.497V50H155.897ZM185.112 50V24.8H188.712V50H185.112ZM207.633 50.288C205.713 50.288 203.925 49.964 202.269 49.316C200.637 48.668 199.221 47.768 198.021 46.616C196.821 45.44 195.885 44.072 195.213 42.512C194.541 40.952 194.205 39.248 194.205 37.4C194.205 35.552 194.541 33.848 195.213 32.288C195.885 30.728 196.821 29.372 198.021 28.22C199.221 27.044 200.637 26.132 202.269 25.484C203.901 24.836 205.689 24.512 207.633 24.512C209.553 24.512 211.317 24.836 212.925 25.484C214.557 26.108 215.973 27.008 217.173 28.184C218.397 29.336 219.333 30.692 219.981 32.252C220.653 33.812 220.989 35.528 220.989 37.4C220.989 39.272 220.653 40.988 219.981 42.548C219.333 44.108 218.397 45.476 217.173 46.652C215.973 47.804 214.557 48.704 212.925 49.352C211.317 49.976 209.553 50.288 207.633 50.288ZM207.633 47.084C209.025 47.084 210.309 46.844 211.485 46.364C212.685 45.884 213.717 45.212 214.581 44.348C215.469 43.46 216.153 42.428 216.633 41.252C217.137 40.076 217.389 38.792 217.389 37.4C217.389 36.008 217.137 34.724 216.633 33.548C216.153 32.372 215.469 31.352 214.581 30.488C213.717 29.6 212.685 28.916 211.485 28.436C210.309 27.956 209.025 27.716 207.633 27.716C206.217 27.716 204.909 27.956 203.709 28.436C202.533 28.916 201.501 29.6 200.613 30.488C199.725 31.352 199.029 32.372 198.525 33.548C198.045 34.724 197.805 36.008 197.805 37.4C197.805 38.792 198.045 40.076 198.525 41.252C199.029 42.428 199.725 43.46 200.613 44.348C201.501 45.212 202.533 45.884 203.709 46.364C204.909 46.844 206.217 47.084 207.633 47.084ZM226.491 50V24.8H236.319C238.527 24.8 240.411 25.148 241.971 25.844C243.531 26.54 244.731 27.548 245.571 28.868C246.411 30.188 246.831 31.76 246.831 33.584C246.831 35.408 246.411 36.98 245.571 38.3C244.731 39.596 243.531 40.592 241.971 41.288C240.411 41.984 238.527 42.332 236.319 42.332H228.471L230.091 40.676V50H226.491ZM243.339 50L236.931 40.856H240.783L247.263 50H243.339ZM230.091 41.036L228.471 39.272H236.211C238.515 39.272 240.255 38.78 241.431 37.796C242.631 36.788 243.231 35.384 243.231 33.584C243.231 31.784 242.631 30.392 241.431 29.408C240.255 28.424 238.515 27.932 236.211 27.932H228.471L230.091 26.132V41.036Z" fill="white"/>
<path d="M134.912 92.432C133.88 92.432 132.968 92.216 132.176 91.784C131.384 91.352 130.76 90.752 130.304 89.984C129.872 89.192 129.656 88.28 129.656 87.248C129.656 85.256 130.484 83.756 132.14 82.748C133.82 81.716 136.472 81.008 140.096 80.624C140.072 80.024 139.952 79.472 139.736 78.968C139.544 78.464 139.208 78.068 138.728 77.78C138.272 77.468 137.648 77.312 136.856 77.312C135.992 77.312 135.14 77.468 134.3 77.78C133.484 78.092 132.68 78.488 131.888 78.968L130.376 76.16C131.024 75.752 131.732 75.38 132.5 75.044C133.268 74.684 134.084 74.408 134.948 74.216C135.812 74 136.712 73.892 137.648 73.892C139.112 73.892 140.324 74.192 141.284 74.792C142.268 75.368 143 76.232 143.48 77.384C143.984 78.512 144.236 79.904 144.236 81.56V92H140.816L140.528 90.056H140.384C139.568 90.728 138.716 91.292 137.828 91.748C136.94 92.204 135.968 92.432 134.912 92.432ZM136.208 89.048C136.928 89.048 137.588 88.904 138.188 88.616C138.812 88.304 139.448 87.848 140.096 87.248V83.504C138.488 83.696 137.216 83.948 136.28 84.26C135.344 84.572 134.672 84.956 134.264 85.412C133.88 85.844 133.688 86.36 133.688 86.96C133.688 87.704 133.928 88.244 134.408 88.58C134.888 88.892 135.488 89.048 136.208 89.048ZM153.151 92L146.995 74.324H151.207L154.015 83.504C154.255 84.344 154.495 85.22 154.735 86.132C154.999 87.02 155.251 87.92 155.491 88.832H155.635C155.899 87.92 156.151 87.02 156.391 86.132C156.655 85.22 156.907 84.344 157.146 83.504L159.955 74.324H163.951L157.939 92H153.151ZM167.015 92V74.324H171.155V92H167.015ZM169.067 71.228C168.347 71.228 167.747 71.012 167.267 70.58C166.811 70.148 166.583 69.572 166.583 68.852C166.583 68.132 166.811 67.568 167.267 67.16C167.747 66.728 168.347 66.512 169.067 66.512C169.811 66.512 170.411 66.728 170.867 67.16C171.323 67.568 171.551 68.132 171.551 68.852C171.551 69.572 171.323 70.148 170.867 70.58C170.411 71.012 169.811 71.228 169.067 71.228ZM176.437 92V74.324H179.857L180.145 76.7H180.289C181.081 75.932 181.945 75.272 182.881 74.72C183.817 74.168 184.885 73.892 186.085 73.892C187.981 73.892 189.361 74.504 190.225 75.728C191.089 76.952 191.521 78.68 191.521 80.912V92H187.381V81.452C187.381 79.988 187.165 78.956 186.733 78.356C186.301 77.756 185.593 77.456 184.609 77.456C183.841 77.456 183.157 77.648 182.557 78.032C181.981 78.392 181.321 78.932 180.577 79.652V92H176.437ZM202.737 99.812C201.321 99.812 200.061 99.644 198.957 99.308C197.853 98.972 196.977 98.456 196.329 97.76C195.705 97.088 195.393 96.236 195.393 95.204C195.393 94.46 195.609 93.764 196.041 93.116C196.497 92.492 197.121 91.928 197.913 91.424V91.28C197.481 90.992 197.109 90.608 196.797 90.128C196.485 89.648 196.329 89.048 196.329 88.328C196.329 87.656 196.521 87.032 196.905 86.456C197.313 85.88 197.769 85.412 198.273 85.052V84.908C197.673 84.452 197.133 83.816 196.653 83C196.197 82.184 195.969 81.26 195.969 80.228C195.969 78.884 196.293 77.744 196.941 76.808C197.589 75.848 198.441 75.128 199.497 74.648C200.553 74.144 201.705 73.892 202.953 73.892C203.433 73.892 203.901 73.928 204.357 74C204.813 74.072 205.209 74.18 205.545 74.324H211.881V77.384H208.569V77.528C208.905 77.888 209.169 78.308 209.361 78.788C209.553 79.244 209.649 79.784 209.649 80.408C209.649 81.704 209.349 82.796 208.749 83.684C208.149 84.572 207.345 85.244 206.337 85.7C205.329 86.156 204.201 86.384 202.953 86.384C202.569 86.384 202.173 86.348 201.765 86.276C201.357 86.204 200.949 86.084 200.541 85.916C200.301 86.156 200.097 86.396 199.929 86.636C199.761 86.876 199.677 87.2 199.677 87.608C199.677 88.112 199.893 88.508 200.325 88.796C200.757 89.084 201.501 89.228 202.557 89.228H205.689C207.825 89.228 209.433 89.576 210.513 90.272C211.617 90.944 212.169 92.048 212.169 93.584C212.169 94.736 211.785 95.78 211.017 96.716C210.249 97.676 209.157 98.432 207.741 98.984C206.325 99.536 204.657 99.812 202.737 99.812ZM202.953 83.792C203.505 83.792 204.009 83.66 204.465 83.396C204.945 83.108 205.317 82.7 205.581 82.172C205.869 81.62 206.013 80.972 206.013 80.228C206.013 79.1 205.713 78.236 205.113 77.636C204.537 77.036 203.817 76.736 202.953 76.736C202.089 76.736 201.357 77.036 200.757 77.636C200.157 78.236 199.857 79.1 199.857 80.228C199.857 80.972 200.001 81.62 200.289 82.172C200.577 82.7 200.949 83.108 201.405 83.396C201.861 83.66 202.377 83.792 202.953 83.792ZM203.385 97.112C204.321 97.112 205.149 96.98 205.869 96.716C206.589 96.476 207.153 96.128 207.561 95.672C207.969 95.24 208.173 94.772 208.173 94.268C208.173 93.572 207.897 93.104 207.345 92.864C206.817 92.624 206.049 92.504 205.041 92.504H202.629C202.149 92.504 201.717 92.48 201.333 92.432C200.949 92.384 200.577 92.324 200.217 92.252C199.761 92.612 199.413 92.984 199.173 93.368C198.957 93.752 198.849 94.16 198.849 94.592C198.849 95.384 199.257 95.996 200.073 96.428C200.889 96.884 201.993 97.112 203.385 97.112ZM220.216 92.432C218.992 92.432 217.78 92.204 216.58 91.748C215.404 91.292 214.384 90.656 213.52 89.84L215.356 87.464C216.148 88.112 216.952 88.58 217.768 88.868C218.584 89.156 219.448 89.3 220.36 89.3C221.32 89.3 222.028 89.096 222.484 88.688C222.94 88.28 223.168 87.776 223.168 87.176C223.168 86.696 222.988 86.288 222.628 85.952C222.292 85.616 221.848 85.328 221.296 85.088C220.744 84.848 220.132 84.608 219.46 84.368C218.596 84.056 217.792 83.684 217.048 83.252C216.304 82.796 215.692 82.244 215.212 81.596C214.756 80.924 214.528 80.12 214.528 79.184C214.528 77.624 215.104 76.352 216.256 75.368C217.408 74.384 218.968 73.892 220.936 73.892C222.136 73.892 223.24 74.096 224.248 74.504C225.256 74.888 226.12 75.392 226.84 76.016L225.004 78.356C224.38 77.9 223.744 77.564 223.096 77.348C222.448 77.132 221.764 77.024 221.044 77.024C220.156 77.024 219.496 77.216 219.064 77.6C218.632 77.984 218.416 78.44 218.416 78.968C218.416 79.4 218.548 79.772 218.812 80.084C219.1 80.372 219.508 80.636 220.036 80.876C220.564 81.092 221.2 81.32 221.944 81.56C222.856 81.872 223.708 82.256 224.5 82.712C225.292 83.144 225.916 83.708 226.372 84.404C226.852 85.076 227.092 85.928 227.092 86.96C227.092 87.968 226.828 88.892 226.3 89.732C225.772 90.548 224.992 91.208 223.96 91.712C222.952 92.192 221.704 92.432 220.216 92.432Z" fill="white"/>
</svg>
